<svg width="70" height="70" viewBox="0 0 70 70" fill="none" xmlns="http://www.w3.org/2000/svg">
<path d="M34.9582 0C15.681 0 0 15.6904 0 34.9791C0 54.2678 15.681 70 35 70C54.2772 70 70 54.3096 70 34.9791C69.9582 15.6904 54.2772 0 34.9582 0ZM59.2115 58.41C58.8769 58.0335 58.5424 57.6987 58.1661 57.3222C57.037 56.8619 55.908 56.4017 54.779 55.9414C52.8136 55.1883 50.8483 54.4351 48.9247 53.6402C48.2557 53.3891 47.6702 52.9707 47.0848 52.5941C46.2067 52.0084 45.7467 51.0879 45.3286 50.1674C45.1195 49.749 44.9522 49.3305 44.7431 48.9121C44.6177 48.7029 44.3668 48.4937 44.1995 48.3264C44.1577 48.3682 44.1159 48.3682 44.0741 48.41C43.9904 47.4895 43.865 46.569 43.7814 45.6485C43.7814 45.4393 43.8232 45.1883 43.9068 45.0209C44.4504 43.5565 44.994 42.092 45.4958 40.5858C45.7885 39.7071 45.9558 38.7866 46.2067 37.9079C46.2485 37.9079 46.2485 37.8661 46.2903 37.8661C47.2521 37.9498 47.5448 37.8243 47.963 36.9456C48.4229 36.0251 48.9665 35.1464 49.2593 34.1841C49.5938 33.0544 49.7192 31.841 49.8865 30.6695C49.9283 30.4602 49.8447 30.2092 49.8029 29.9582C49.5938 29.1213 48.9665 28.8703 48.2139 29.4142C48.0884 29.4979 48.0048 29.5816 47.7957 29.749C47.8375 29.3724 47.8793 29.1213 47.9211 28.9121C48.2139 27.1548 48.5902 25.4393 48.7575 23.682C48.9665 21.4644 48.7575 19.2469 47.8375 17.1548C47.0012 15.272 45.7049 13.8494 43.9486 12.8452C41.9415 11.6736 39.767 11.0879 37.4671 10.795C35.2927 10.5021 33.1183 10.5021 30.902 10.6276C28.3094 10.7531 26.3441 11.8828 25.0478 14.1004C24.9642 14.2259 24.8387 14.3515 24.7133 14.3933C23.2497 14.8536 22.5388 15.8996 22.2461 17.3222C21.9534 18.8285 21.828 20.3766 21.8698 21.9247C21.9534 24.3933 22.3716 26.7782 22.9152 29.1632C22.957 29.2887 22.957 29.4561 22.9988 29.5816C22.9988 29.5816 22.957 29.6234 22.957 29.6653C22.7479 29.5397 22.5388 29.3724 22.3297 29.2887C21.828 29.0377 21.368 29.205 21.2007 29.7071C21.0753 30.1674 20.9498 30.7113 21.0335 31.2134C21.2007 32.3013 21.368 33.431 21.7025 34.477C22.037 35.4812 22.6225 36.4435 23.1243 37.4059C23.4588 38.0335 24.086 38.0335 24.7551 37.9079C24.8805 38.4937 24.9642 39.0795 25.1314 39.6234C25.7168 41.4226 26.3859 43.2218 27.0131 45.0209C27.0968 45.3138 27.1804 45.6067 27.1804 45.8996C27.1386 46.8201 27.0131 47.6987 26.8877 48.6611C26.3859 48.4937 26.2605 48.8284 26.0932 49.1213C25.675 49.9582 25.2569 50.8368 24.7969 51.6318C24.4205 52.3431 23.7515 52.7615 23.0824 53.1799C21.368 54.1423 19.5281 54.8536 17.6882 55.523C15.5137 56.318 13.3811 57.1967 11.2485 58.0753C10.9976 58.159 10.7467 58.2845 10.5376 58.4519C4.80884 52.2176 1.25448 44.0167 1.25448 34.9791C1.25448 16.3598 16.3919 1.21339 35 1.21339C53.6081 1.21339 68.7455 16.3598 68.7455 34.9791C68.7037 44.1004 65.0657 52.3431 59.2115 58.41Z" fill="#CDCDCD"/>
</svg>
