<svg width="20" height="22" viewBox="0 0 20 22" fill="none" xmlns="http://www.w3.org/2000/svg">
<path fill-rule="evenodd" clip-rule="evenodd" d="M13.6128 3.51219C14.4705 2.58269 15.0487 1.28809 14.8905 0C13.6544 0.0440004 12.1591 0.738268 11.2728 1.66667C10.4769 2.49056 9.78216 3.80702 9.96894 5.06982C11.3477 5.16551 12.7551 4.44278 13.6128 3.51219ZM16.7047 11.6876C16.7392 15.0173 19.9643 16.1249 20 16.1392C19.9738 16.2173 19.4849 17.7174 18.3012 19.2684C17.2769 20.6082 16.2146 21.9426 14.5407 21.9712C12.8966 21.9987 12.3673 21.0979 10.4864 21.0979C8.60679 21.0979 8.01911 21.9425 6.46306 21.9986C4.84752 22.0525 3.61624 20.549 2.58482 19.2137C0.474394 16.4824 -1.13757 11.4952 1.02758 8.12923C2.10302 6.45833 4.02429 5.39862 6.11092 5.37222C7.69671 5.34472 9.19448 6.32828 10.164 6.32828C11.1336 6.32828 12.9537 5.14578 14.8667 5.31958C15.6673 5.34928 17.9157 5.60879 19.3588 7.50188C19.2422 7.56678 16.6761 8.90463 16.7047 11.6876Z" fill="#313131"/>
</svg>
