<svg width="21" height="20" viewBox="0 0 21 20" fill="none" xmlns="http://www.w3.org/2000/svg">
<path fill-rule="evenodd" clip-rule="evenodd" d="M4.56689 10.0001C4.56689 9.35052 4.67712 8.72779 4.87387 8.1437L1.43016 5.57007C0.758998 6.9037 0.380859 8.40643 0.380859 10.0001C0.380859 11.5923 0.758533 13.0941 1.42876 14.4269L4.87061 11.8482C4.67573 11.2669 4.56689 10.6464 4.56689 10.0001Z" fill="#FBBC05"/>
<path fill-rule="evenodd" clip-rule="evenodd" d="M10.6134 4.0909C12.0553 4.0909 13.3576 4.5909 14.3808 5.40908L17.3576 2.5C15.5436 0.954544 13.218 0 10.6134 0C6.56969 0 3.09436 2.26318 1.43018 5.56999L4.87389 8.14363C5.66737 5.78636 7.92923 4.0909 10.6134 4.0909Z" fill="#EA4335"/>
<path fill-rule="evenodd" clip-rule="evenodd" d="M10.6134 15.9089C7.92923 15.9089 5.66737 14.2135 4.87389 11.8562L1.43018 14.4294C3.09436 17.7366 6.56969 19.9998 10.6134 19.9998C13.1092 19.9998 15.492 19.1326 17.2804 17.5076L14.0115 15.0344C13.0892 15.603 11.9278 15.9089 10.6134 15.9089Z" fill="#34A853"/>
<path fill-rule="evenodd" clip-rule="evenodd" d="M20.3809 9.99982C20.3809 9.40891 20.2879 8.77255 20.1484 8.18164H10.6135V12.0453H16.1019C15.8275 13.3625 15.0805 14.3753 14.0117 15.0344L17.2805 17.5075C19.1591 15.8012 20.3809 13.2594 20.3809 9.99982Z" fill="#4285F4"/>
</svg>
